<?xml version="1.0" encoding="UTF-8" standalone="no"?>
<!DOCTYPE svg PUBLIC "-//W3C//DTD SVG 1.0//EN" "http://www.w3.org/TR/2001/REC-SVG-20010904/DTD/svg10.dtd">
<!-- Fixed up by svgfix.xsl 1.1  -->
<!-- Generated by Microsoft Visio 11.0, SVG Export, v1.0 memory_map.svg Page-1 -->
<svg xmlns="http://www.w3.org/2000/svg" xmlns:xlink="http://www.w3.org/1999/xlink" xmlns:ev="http://www.w3.org/2001/xml-events" width="593.538" height="488.088" viewBox="0 0 445.154 366.066" xml:space="preserve" color-interpolation-filters="sRGB" class="st9">
	

	<style type="text/css"><![CDATA[
	
		.st1 {fill:none;stroke:#000000;stroke-linecap:butt;stroke-width:0.5px}
		.st2 {fill:#ffffff;stroke:none;stroke-linecap:butt;stroke-width:7.2px}
		.st3 {fill:#000000;font-family:Arial,Helvetica,sans-serif;font-size:0.666664em}
		.st4 {fill:none;stroke:none;stroke-linecap:butt;stroke-width:0.5px}
		.st5 {fill:#000000;font-family:'Lucida Sans Typewriter','Lucida Console','Courier New',Courier,monospace;font-size:0.499992em}
		.st6 {font-size:1em}
		.st7 {stroke:#000000;stroke-linecap:butt;stroke-width:0.24px}
		.st8 {stroke:#000000;stroke-linecap:butt;stroke-width:0.5px}
		.st9 {fill:none;fill-rule:evenodd;font-size:12px;overflow:visible;stroke-linecap:square;stroke-miterlimit:3}
	
	]]></style>

	<g>
		<title>Page-1</title>
		
		<g id="shape1-1" transform="translate(249.949, -329.585)">
			<title>Sheet.1</title>
			<desc>Vendor-specific</desc>
			
			
			<rect x="0" y="332.05" width="147.402" height="34.0157" class="st1"/>
			<rect x="45.7567" y="344.258" width="55.1368" height="9.59985" class="st2"/>
			<text x="46.13" y="351.46" class="st3">Vendor-specific</text>		</g>
		<g id="shape2-5" transform="translate(249.949, -227.537)">
			<title>Sheet.2</title>
			<desc>External device</desc>
			
			
			<rect x="0" y="283.862" width="147.402" height="82.2045" class="st1"/>
			<rect x="45.9775" y="320.164" width="54.6952" height="9.59985" class="st2"/>
			<text x="46.35" y="327.36" class="st3">External device</text>		</g>
		<g id="shape3-9" transform="translate(249.949, -136.829)">
			<title>Sheet.3</title>
			<desc>External RAM</desc>
			
			
			<rect x="0" y="275.357" width="147.402" height="90.7087" class="st1"/>
			<rect x="48.6513" y="315.912" width="49.3473" height="9.59985" class="st2"/>
			<text x="49.03" y="323.11" class="st3">External RAM</text>		</g>
		<g id="shape4-13" transform="translate(249.949, -91.4743)">
			<title>Sheet.4</title>
			<desc>Peripheral</desc>
			
			
			<rect x="0" y="320.712" width="147.402" height="45.3543" class="st1"/>
			<rect x="55.0926" y="338.589" width="36.4647" height="9.59985" class="st2"/>
			<text x="55.47" y="345.79" class="st3">Peripheral</text>		</g>
		<g id="shape5-17" transform="translate(249.949, -46.12)">
			<title>Sheet.5</title>
			<desc>SRAM</desc>
			
			
			<rect x="0" y="320.712" width="147.402" height="45.3543" class="st1"/>
			<rect x="61.7684" y="338.589" width="23.113" height="9.59985" class="st2"/>
			<text x="62.14" y="345.79" class="st3">SRAM</text>		</g>
		<g id="shape6-21" transform="translate(249.949, -0.765676)">
			<title>Sheet.6</title>
			<desc>Code</desc>
			
			
			<rect x="0" y="320.712" width="147.402" height="45.3543" class="st1"/>
			<rect x="63.7625" y="338.589" width="19.125" height="9.59985" class="st2"/>
			<text x="64.14" y="345.79" class="st3">Code</text>		</g>
		<g id="shape7-25" transform="translate(398.945, -357.931)">
			<title>Sheet.7</title>
			<desc>0xFFFFFFFF</desc>
			
			
			<rect x="0" y="360.397" width="45.3543" height="5.66929" class="st4"/>
			<rect x="0.625122" y="359.632" width="33.2078" height="7.20016" class="st2"/>
			<text x="1" y="365.03" class="st5">0xFFFFFFFF</text>		</g>
		<g id="shape8-29" transform="translate(249.949, -309.742)">
			<title>Sheet.8</title>
			<desc>Private peripheral bus - External</desc>
			
			
			<rect x="0" y="346.223" width="147.402" height="19.8428" class="st1"/>
			<text x="16.56" y="358.54" class="st3">Private peripheral bus<tspan class="st6"> </tspan><tspan class="st6">-</tspan><tspan class="st6"> </tspan><tspan class="st6">External</tspan></text>		</g>
		<g id="shape9-36" transform="translate(399.122, -329.584)">
			<title>Sheet.9</title>
			<desc>0xE0100000</desc>
			
			
			<rect x="0" y="360.397" width="45.3543" height="5.66929" class="st4"/>
			<rect x="0.625122" y="359.632" width="37.2824" height="7.20016" class="st2"/>
			<text x="1" y="365.03" class="st5">0xE0100000</text>		</g>
		<g id="shape10-40" transform="translate(399.299, -321.08)">
			<title>Sheet.10</title>
			<desc>0xE00FFFFF</desc>
			
			
			<rect x="0" y="360.397" width="45.3543" height="5.66929" class="st4"/>
			<rect x="0.625122" y="359.632" width="34.3971" height="7.20016" class="st2"/>
			<text x="1" y="365.03" class="st5">0xE00FFFFF</text>		</g>
		<g id="shape11-44" transform="translate(398.236, -301.238)">
			<title>Sheet.11</title>
			<desc>0xE003FFFF</desc>
			
			
			<rect x="0" y="360.397" width="45.3543" height="5.66929" class="st4"/>
			<text x="2" y="365.03" class="st5">0x<tspan class="st6">E</tspan><tspan class="st6">003</tspan>FFFF</text>		</g>
		<g id="shape12-49" transform="translate(398.059, -309.742)">
			<title>Sheet.12</title>
			<desc>0xE0040000</desc>
			
			
			<rect x="0" y="360.397" width="45.3543" height="5.66929" class="st4"/>
			<text x="2" y="365.03" class="st5">0xE00<tspan class="st6">4</tspan>0000</text>		</g>
		<g id="shape13-53" transform="translate(399.122, -219.033)">
			<title>Sheet.13</title>
			<desc>0x9FFFFFFF</desc>
			
			
			<rect x="0" y="360.397" width="45.3543" height="5.66929" class="st4"/>
			<rect x="0.625122" y="359.632" width="33.7849" height="7.20016" class="st2"/>
			<text x="1" y="365.03" class="st5">0x9FFFFFFF</text>		</g>
		<g id="shape14-57" transform="translate(399.122, -227.537)">
			<title>Sheet.14</title>
			<desc>0xA0000000</desc>
			
			
			<rect x="0" y="360.397" width="45.3543" height="5.66929" class="st4"/>
			<rect x="0.625122" y="359.632" width="38.1701" height="7.20016" class="st2"/>
			<text x="1" y="365.03" class="st5">0xA0000000</text>		</g>
		<g id="shape15-61" transform="translate(399.122, -128.324)">
			<title>Sheet.15</title>
			<desc>0x5FFFFFFF</desc>
			
			
			<rect x="0" y="360.397" width="45.3543" height="5.66929" class="st4"/>
			<rect x="0.625122" y="359.632" width="33.7849" height="7.20016" class="st2"/>
			<text x="1" y="365.03" class="st5">0x5FFFFFFF</text>		</g>
		<g id="shape16-65" transform="translate(399.122, -136.829)">
			<title>Sheet.16</title>
			<desc>0x60000000</desc>
			
			
			<rect x="0" y="360.397" width="45.3543" height="5.66929" class="st4"/>
			<rect x="0.625122" y="359.632" width="37.8243" height="7.20016" class="st2"/>
			<text x="1" y="365.03" class="st5">0x60000000</text>		</g>
		<g id="shape17-69" transform="translate(399.122, -82.9702)">
			<title>Sheet.17</title>
			<desc>0x3FFFFFFF</desc>
			
			
			<rect x="0" y="360.397" width="45.3543" height="5.66929" class="st4"/>
			<rect x="0.625122" y="359.632" width="33.7849" height="7.20016" class="st2"/>
			<text x="1" y="365.03" class="st5">0x3FFFFFFF</text>		</g>
		<g id="shape18-73" transform="translate(399.122, -91.4743)">
			<title>Sheet.18</title>
			<desc>0x40000000</desc>
			
			
			<rect x="0" y="360.397" width="45.3543" height="5.66929" class="st4"/>
			<rect x="0.625122" y="359.632" width="37.8243" height="7.20016" class="st2"/>
			<text x="1" y="365.03" class="st5">0x40000000</text>		</g>
		<g id="shape19-77" transform="translate(399.122, -37.6158)">
			<title>Sheet.19</title>
			<desc>0x1FFFFFFF</desc>
			
			
			<rect x="0" y="360.397" width="45.3543" height="5.66929" class="st4"/>
			<rect x="0.625122" y="359.632" width="33.7849" height="7.20016" class="st2"/>
			<text x="1" y="365.03" class="st5">0x1FFFFFFF</text>		</g>
		<g id="shape20-81" transform="translate(399.299, -46.12)">
			<title>Sheet.20</title>
			<desc>0x20000000</desc>
			
			
			<rect x="0" y="360.397" width="45.3543" height="5.66929" class="st4"/>
			<rect x="0.625122" y="359.632" width="37.8243" height="7.20016" class="st2"/>
			<text x="1" y="365.03" class="st5">0x20000000</text>		</g>
		<g id="shape21-85" transform="translate(399.122, -0.765676)">
			<title>Sheet.21</title>
			<desc>0x00000000</desc>
			
			
			<rect x="0" y="360.397" width="45.3543" height="5.66929" class="st4"/>
			<rect x="0.625122" y="359.632" width="37.8243" height="7.20016" class="st2"/>
			<text x="1" y="365.03" class="st5">0x00000000</text>		</g>
		<g id="shape23-89" transform="translate(45.8543, -352.262)">
			<title>Sheet.23</title>
			<desc>ROM Table</desc>
			
			
			<rect x="0" y="354.727" width="130.394" height="11.3386" class="st1"/>
			<rect x="44.376" y="355.597" width="40.8983" height="9.59985" class="st2"/>
			<text x="44.75" y="362.8" class="st3">ROM Table</text>		</g>
		<g id="shape24-93" transform="translate(45.8543, -329.585)">
			<title>Sheet.24</title>
			<desc>ETM</desc>
			
			
			<rect x="0" y="354.727" width="130.394" height="11.3386" class="st1"/>
			<rect x="56.3818" y="355.597" width="16.8865" height="9.59985" class="st2"/>
			<text x="56.76" y="362.8" class="st3">ETM</text>		</g>
		<g id="shape25-97" transform="translate(45.8543, -318.246)">
			<title>Sheet.25</title>
			<desc>TPIU</desc>
			
			
			<rect x="0" y="354.727" width="130.394" height="11.3386" class="st1"/>
			<rect x="55.7139" y="355.597" width="18.2225" height="9.59985" class="st2"/>
			<text x="56.09" y="362.8" class="st3">TPIU</text>		</g>
		<g id="shape26-101" transform="translate(45.8543, -284.23)">
			<title>Sheet.26</title>
			<desc>Reserved</desc>
			
			
			<rect x="0" y="354.727" width="130.394" height="11.3386" class="st1"/>
			<rect x="47.7057" y="355.597" width="34.2386" height="9.59985" class="st2"/>
			<text x="48.08" y="362.8" class="st3">Reserved</text>		</g>
		<g id="shape27-105" transform="translate(45.8543, -272.892)">
			<title>Sheet.27</title>
			<desc>System Control Space</desc>
			
			
			<rect x="0" y="354.727" width="130.394" height="11.3386" class="st1"/>
			<rect x="25.0304" y="355.597" width="79.5894" height="9.59985" class="st2"/>
			<text x="25.41" y="362.8" class="st3">System Control Space</text>		</g>
		<g id="shape28-109" transform="translate(45.8543, -261.553)">
			<title>Sheet.28</title>
			<desc>Reserved</desc>
			
			
			<rect x="0" y="354.727" width="130.394" height="11.3386" class="st1"/>
			<rect x="47.7057" y="355.597" width="34.2386" height="9.59985" class="st2"/>
			<text x="48.08" y="362.8" class="st3">Reserved</text>		</g>
		<g id="shape29-113" transform="translate(45.8543, -250.214)">
			<title>Sheet.29</title>
			<desc>FPB</desc>
			
			
			<rect x="0" y="354.727" width="130.394" height="11.3386" class="st1"/>
			<rect x="57.046" y="355.597" width="15.5583" height="9.59985" class="st2"/>
			<text x="57.42" y="362.8" class="st3">FPB</text>		</g>
		<g id="shape30-117" transform="translate(45.8543, -238.876)">
			<title>Sheet.30</title>
			<desc>DWT</desc>
			
			
			<rect x="0" y="354.727" width="130.394" height="11.3386" class="st1"/>
			<rect x="55.7177" y="355.597" width="18.2148" height="9.59985" class="st2"/>
			<text x="56.09" y="362.8" class="st3">DWT</text>		</g>
		<g id="shape31-121" transform="translate(45.8543, -227.537)">
			<title>Sheet.31</title>
			<desc>ITM</desc>
			
			
			<rect x="0" y="354.727" width="130.394" height="11.3386" class="st1"/>
			<rect x="57.9383" y="355.597" width="13.7733" height="9.59985" class="st2"/>
			<text x="58.31" y="362.8" class="st3">ITM</text>		</g>
		<g id="shape32-125" transform="translate(45.8543, -340.923)">
			<title>Sheet.32</title>
			<desc>External PPB</desc>
			
			
			<rect x="0" y="354.727" width="130.394" height="11.3386" class="st1"/>
			<rect x="41.0364" y="355.597" width="47.5774" height="9.59985" class="st2"/>
			<text x="41.41" y="362.8" class="st3">External PPB</text>		</g>
		<g id="shape33-129" transform="translate(96.5458, 368.855) rotate(-155.225)">
			<title>Sheet.33</title>
			<path d="M0 366.07 L81.17 366.07" class="st7"/>
		</g>
		<g id="shape34-132" transform="translate(207.988, 419.977) rotate(-173.418)">
			<title>Sheet.34</title>
			<path d="M0 366.07 L74.19 366.07" class="st7"/>
		</g>
		<g id="shape35-135" transform="translate(0.5, -359.632)">
			<title>Sheet.35</title>
			<desc>0xE00FFFFF</desc>
			
			
			<rect x="0" y="360.397" width="45.3543" height="5.66929" class="st4"/>
			<rect x="8.57813" y="359.632" width="34.3971" height="7.20016" class="st2"/>
			<text x="8.95" y="365.03" class="st5">0xE00FFFFF</text>		</g>
		<g id="shape36-139" transform="translate(0.5, -340.923)">
			<title>Sheet.36</title>
			<desc>0xE0042000</desc>
			
			
			<rect x="0" y="360.397" width="45.3543" height="5.66929" class="st4"/>
			<text x="6.07" y="365.03" class="st5">0xE00<tspan class="st6">42000</tspan></text>		</g>
		<g id="shape37-143" transform="translate(0.5, -329.017)">
			<title>Sheet.37</title>
			<desc>0xE0041000</desc>
			
			
			<rect x="0" y="360.397" width="45.3543" height="5.66929" class="st4"/>
			<text x="6.07" y="365.03" class="st5">0xE00<tspan class="st6">41000</tspan></text>		</g>
		<g id="shape38-147" transform="translate(0.5, -318.246)">
			<title>Sheet.38</title>
			<desc>0xE0040000</desc>
			
			
			<rect x="0" y="360.397" width="45.3543" height="5.66929" class="st4"/>
			<text x="6.07" y="365.03" class="st5">0xE00<tspan class="st6">40000</tspan></text>		</g>
		<g id="shape39-151" transform="translate(0.5, -290.466)">
			<title>Sheet.39</title>
			<desc>0xE003FFFF</desc>
			
			
			<rect x="0" y="360.397" width="45.3543" height="5.66929" class="st4"/>
			<text x="8.38" y="365.03" class="st5">0xE00<tspan class="st6">3</tspan><tspan class="st6">F</tspan>FFF</text>		</g>
		<g id="shape40-156" transform="translate(0.5, -282.529)">
			<title>Sheet.40</title>
			<desc>0xE000F000</desc>
			
			
			<rect x="0" y="360.397" width="45.3543" height="5.66929" class="st4"/>
			<text x="6.64" y="365.03" class="st5">0xE000<tspan class="st6">F</tspan><tspan class="st6">000</tspan></text>		</g>
		<g id="shape41-161" transform="translate(0.5, -273.459)">
			<title>Sheet.41</title>
			<desc>0xE000E000</desc>
			
			
			<rect x="0" y="360.397" width="45.3543" height="5.66929" class="st4"/>
			<text x="6.61" y="365.03" class="st5">0xE000<tspan class="st6">E</tspan><tspan class="st6">000</tspan></text>		</g>
		<g id="shape42-166" transform="translate(0.5, -262.12)">
			<title>Sheet.42</title>
			<desc>0xE0003000</desc>
			
			
			<rect x="0" y="360.397" width="45.3543" height="5.66929" class="st4"/>
			<text x="6.07" y="365.03" class="st5">0xE000<tspan class="st6">3000</tspan></text>		</g>
		<g id="shape43-170" transform="translate(0.5, -250.214)">
			<title>Sheet.43</title>
			<desc>0xE0002000</desc>
			
			
			<rect x="0" y="360.397" width="45.3543" height="5.66929" class="st4"/>
			<text x="6.07" y="365.03" class="st5">0xE000<tspan class="st6">2000</tspan></text>		</g>
		<g id="shape44-174" transform="translate(0.5, -351.128)">
			<title>Sheet.44</title>
			<desc>0xE00FF000</desc>
			
			
			<rect x="0" y="360.397" width="45.3543" height="5.66929" class="st4"/>
			<text x="7.22" y="365.03" class="st5">0xE00<tspan class="st6">F</tspan>F<tspan class="st6">000</tspan></text>		</g>
		<g id="shape45-179" transform="translate(-13.736, 520.006) rotate(-133.919)">
			<title>Sheet.45</title>
			<path d="M0 366.07 L106.25 366.07" class="st7"/>
		</g>
		<g id="shape47-182" transform="translate(107.315, 648.577) rotate(-157.068)">
			<title>Sheet.47</title>
			<path d="M0 366.07 L80.03 366.07" class="st7"/>
		</g>
		<g id="shape48-185" transform="translate(423.501, 642.257) rotate(151.699)">
			<title>Sheet.48</title>
			<path d="M0 366.07 L83.71 366.07" class="st7"/>
		</g>
		<g id="shape49-188" transform="translate(0.5, -94.309)">
			<title>Sheet.49</title>
			<desc>0x40000000</desc>
			
			
			<rect x="0" y="360.397" width="45.3543" height="5.66929" class="st4"/>
			<text x="5.53" y="365.03" class="st5">0x<tspan class="st6">40000000</tspan></text>		</g>
		<g id="shape50-192" transform="translate(45.8543, -97.1436)">
			<title>Sheet.50</title>
			<desc>Bit band region</desc>
			
			
			<rect x="0" y="354.727" width="130.394" height="11.3386" class="st1"/>
			<text x="40.51" y="362.8" class="st3">Bit b<tspan class="st6">and region</tspan></text>		</g>
		<g id="shape51-196" transform="translate(45.8543, -136.829)">
			<title>Sheet.51</title>
			<desc>Bit band alias</desc>
			
			
			<rect x="0" y="326.381" width="130.394" height="39.685" class="st1"/>
			<rect x="40.8098" y="341.424" width="48.0306" height="9.59985" class="st2"/>
			<text x="41.18" y="348.62" class="st3">Bit band alias</text>		</g>
		<g id="shape52-200" transform="translate(46.7402, -151.002)">
			<title>Sheet.52</title>
			<desc>32MB</desc>
			
			
			<rect x="0" y="354.727" width="30.1181" height="11.3386" class="st4"/>
			<rect x="0.625122" y="355.597" width="20.8982" height="9.59985" class="st2"/>
			<text x="1" y="362.8" class="st3">32MB</text>		</g>
		<g id="shape53-204" transform="translate(46.9173, -97.1436)">
			<title>Sheet.53</title>
			<desc>1MB</desc>
			
			
			<rect x="0" y="354.727" width="29.7638" height="11.3386" class="st4"/>
			<rect x="0.625122" y="355.597" width="16.449" height="9.59985" class="st2"/>
			<text x="1" y="362.8" class="st3">1MB</text>		</g>
		<g id="shape54-208" transform="translate(45.8543, -108.482)">
			<title>Sheet.54</title>
			
			<rect x="0" y="337.72" width="130.394" height="28.3465" class="st1"/>
		</g>
		<g id="shape55-210" transform="translate(45.8543, -116.986)">
			<title>Sheet.55</title>
			<desc>31MB</desc>
			
			
			<rect x="0" y="354.727" width="28.3465" height="11.3386" class="st4"/>
			<text x="2" y="362.8" class="st3">31<tspan class="st6">MB</tspan></text>		</g>
		<g id="shape56-214" transform="translate(0.5, -108.482)">
			<title>Sheet.56</title>
			<desc>0x40100000</desc>
			
			
			<rect x="0" y="360.397" width="45.3543" height="5.66929" class="st4"/>
			<text x="5.53" y="365.03" class="st5">0x4<tspan class="st6">0</tspan>100000</text>		</g>
		<g id="shape57-218" transform="translate(0.5, -136.829)">
			<title>Sheet.57</title>
			<desc>0x42000000</desc>
			
			
			<rect x="0" y="360.397" width="45.3543" height="5.66929" class="st4"/>
			<text x="5.53" y="365.03" class="st5">0x42<tspan class="st6">0</tspan>00000</text>		</g>
		<g id="shape58-222" transform="translate(0.5, -170.844)">
			<title>Sheet.58</title>
			<desc>0x43FFFFFF</desc>
			
			
			<rect x="0" y="360.397" width="45.3543" height="5.66929" class="st4"/>
			<text x="8.99" y="365.03" class="st5">0x4<tspan class="st6">3</tspan><tspan class="st6">F</tspan>FFFFF</text>		</g>
		<g id="shape59-227" transform="translate(0.5, -128.324)">
			<title>Sheet.59</title>
			<desc>0x41FFFFFF</desc>
			
			
			<rect x="0" y="360.397" width="45.3543" height="5.66929" class="st4"/>
			<text x="8.99" y="365.03" class="st5">0x4<tspan class="st6">1</tspan><tspan class="st6">F</tspan>FFFFF</text>		</g>
		<g id="shape61-232" transform="translate(319.078, 415.804) rotate(169.115)">
			<title>Sheet.61</title>
			<path d="M0 366.07 L75.05 366.07" class="st7"/>
		</g>
		<g id="shape62-235" transform="translate(0.5, -239.443)">
			<title>Sheet.62</title>
			<desc>0xE0001000</desc>
			
			
			<rect x="0" y="360.397" width="45.3543" height="5.66929" class="st4"/>
			<text x="6.07" y="365.03" class="st5">0xE000<tspan class="st6">1000</tspan></text>		</g>
		<g id="shape63-239" transform="translate(0.5, -226.97)">
			<title>Sheet.63</title>
			<desc>0xE0000000</desc>
			
			
			<rect x="0" y="360.397" width="45.3543" height="5.66929" class="st4"/>
			<text x="6.07" y="365.03" class="st5">0xE000<tspan class="st6">0000</tspan></text>		</g>
		<g id="shape64-243" transform="translate(249.949, -289.899)">
			<title>Sheet.64</title>
			<desc>Private peripheral bus - Internal</desc>
			
			
			<rect x="0" y="346.224" width="147.402" height="19.8425" class="st1"/>
			<text x="17.89" y="358.54" class="st3">Private peripheral bus<tspan class="st6"> </tspan><tspan class="st6">-</tspan><tspan class="st6"> </tspan><tspan class="st6">Internal</tspan></text>		</g>
		<g id="shape65-250" transform="translate(484.534, 357.19) rotate(140.146)">
			<title>Sheet.65</title>
			<path d="M0 366.07 L96 366.07" class="st7"/>
		</g>
		<g id="shape66-253" transform="translate(45.8543, -6.43497)">
			<title>Sheet.66</title>
			<desc>Bit band region</desc>
			
			
			<rect x="0" y="354.727" width="130.394" height="11.3386" class="st1"/>
			<text x="40.51" y="362.8" class="st3">Bit b<tspan class="st6">and region</tspan></text>		</g>
		<g id="shape67-257" transform="translate(45.8543, -46.12)">
			<title>Sheet.67</title>
			<desc>Bit band alias</desc>
			
			
			<rect x="0" y="326.381" width="130.394" height="39.685" class="st1"/>
			<rect x="40.8098" y="341.424" width="48.0306" height="9.59985" class="st2"/>
			<text x="41.18" y="348.62" class="st3">Bit band alias</text>		</g>
		<g id="shape68-261" transform="translate(47.0945, -60.2932)">
			<title>Sheet.68</title>
			<desc>32MB</desc>
			
			
			<rect x="0" y="354.727" width="28.3465" height="11.3386" class="st4"/>
			<rect x="0.625122" y="355.597" width="20.8982" height="9.59985" class="st2"/>
			<text x="1" y="362.8" class="st3">32MB</text>		</g>
		<g id="shape69-265" transform="translate(46.563, -6.43497)">
			<title>Sheet.69</title>
			<desc>1MB</desc>
			
			
			<rect x="0" y="354.727" width="28.3465" height="11.3386" class="st4"/>
			<rect x="0.625122" y="355.597" width="16.449" height="9.59985" class="st2"/>
			<text x="1" y="362.8" class="st3">1MB</text>		</g>
		<g id="shape70-269" transform="translate(45.8543, -17.7735)">
			<title>Sheet.70</title>
			
			<rect x="0" y="337.72" width="130.394" height="28.3465" class="st1"/>
		</g>
		<g id="shape71-271" transform="translate(45.8543, -26.2775)">
			<title>Sheet.71</title>
			<desc>31MB</desc>
			
			
			<rect x="0" y="354.727" width="28.3465" height="11.3386" class="st4"/>
			<text x="2" y="362.8" class="st3">31<tspan class="st6">MB</tspan></text>		</g>
		<g id="shape72-275" transform="translate(0.854331, -4.66355)">
			<title>Sheet.72</title>
			<desc>0x20000000</desc>
			
			
			<rect x="0" y="360.397" width="45.3543" height="5.66929" class="st4"/>
			<text x="5.53" y="365.03" class="st5">0x<tspan class="st6">20000000</tspan></text>		</g>
		<g id="shape73-279" transform="translate(0.854331, -18.8368)">
			<title>Sheet.73</title>
			<desc>0x20100000</desc>
			
			
			<rect x="0" y="360.397" width="45.3543" height="5.66929" class="st4"/>
			<text x="5.53" y="365.03" class="st5">0x<tspan class="st6">20100000</tspan></text>		</g>
		<g id="shape74-283" transform="translate(0.854331, -47.1832)">
			<title>Sheet.74</title>
			<desc>0x22000000</desc>
			
			
			<rect x="0" y="360.397" width="45.3543" height="5.66929" class="st4"/>
			<text x="5.53" y="365.03" class="st5">0x<tspan class="st6">2</tspan>2<tspan class="st6">0</tspan>00000</text>		</g>
		<g id="shape75-288" transform="translate(0.854331, -81.199)">
			<title>Sheet.75</title>
			<desc>0x23FFFFFF</desc>
			
			
			<rect x="0" y="360.397" width="45.3543" height="5.66929" class="st4"/>
			<text x="8.99" y="365.03" class="st5">0x<tspan class="st6">23</tspan><tspan class="st6">F</tspan>FFFFF</text>		</g>
		<g id="shape76-293" transform="translate(0.854331, -37.6158)">
			<title>Sheet.76</title>
			<desc>0x21FFFFFF</desc>
			
			
			<rect x="0" y="360.397" width="45.3543" height="5.66929" class="st4"/>
			<text x="8.99" y="365.03" class="st5">0x<tspan class="st6">21</tspan><tspan class="st6">F</tspan>FFFFF</text>		</g>
		<g id="shape77-298" transform="translate(371.13, -267.577)">
			<title>Sheet.77</title>
			<desc>1.0GB</desc>
			
			
			<rect x="0" y="354.727" width="28.3465" height="11.3386" class="st4"/>
			<rect x="0.625122" y="355.597" width="22.6794" height="9.59985" class="st2"/>
			<text x="1" y="362.8" class="st3">1.0GB</text>		</g>
		<g id="shape78-302" transform="translate(371.484, -175.805)">
			<title>Sheet.78</title>
			<desc>1.0GB</desc>
			
			
			<rect x="0" y="354.727" width="28.3465" height="11.3386" class="st4"/>
			<rect x="0.625122" y="355.597" width="22.6794" height="9.59985" class="st2"/>
			<text x="1" y="362.8" class="st3">1.0GB</text>		</g>
		<g id="shape79-306" transform="translate(369.713, -109.9)">
			<title>Sheet.79</title>
			<desc>0.5GB</desc>
			
			
			<rect x="0" y="354.727" width="28.3465" height="11.3386" class="st4"/>
			<rect x="0.625122" y="355.597" width="22.6794" height="9.59985" class="st2"/>
			<text x="1" y="362.8" class="st3">0.5GB</text>		</g>
		<g id="shape80-310" transform="translate(369.358, -65.6082)">
			<title>Sheet.80</title>
			<desc>0.5GB</desc>
			
			
			<rect x="0" y="354.727" width="28.3465" height="11.3386" class="st4"/>
			<rect x="0.625122" y="355.597" width="22.6794" height="9.59985" class="st2"/>
			<text x="1" y="362.8" class="st3">0.5GB</text>		</g>
		<g id="shape81-314" transform="translate(370.776, -19.8995)">
			<title>Sheet.81</title>
			<desc>0.5GB</desc>
			
			
			<rect x="0" y="354.727" width="28.3465" height="11.3386" class="st4"/>
			<rect x="0.625122" y="355.597" width="22.6794" height="9.59985" class="st2"/>
			<text x="1" y="362.8" class="st3">0.5GB</text>		</g>
		<g id="shape82-318" transform="translate(398.236, -281.395)">
			<title>Sheet.82</title>
			<desc>0xDFFFFFFF</desc>
			
			
			<rect x="0" y="360.397" width="45.3543" height="5.66929" class="st4"/>
			<text x="2" y="365.03" class="st5">0x<tspan class="st6">DFFF</tspan>FFFF</text>		</g>
		<g id="shape83-322" transform="translate(398.236, -289.899)">
			<title>Sheet.83</title>
			<desc>0xE0000000</desc>
			
			
			<rect x="0" y="360.397" width="45.3543" height="5.66929" class="st4"/>
			<text x="2" y="365.03" class="st5">0xE00<tspan class="st6">0</tspan>0000</text>		</g>
		<g id="shape46-326" transform="translate(204.324, -96.0654) rotate(4.39871)">
			<title>Sheet.46</title>
			<path d="M0 366.07 L73.92 366.07" class="st8"/>
		</g>
	</g>
</svg>